<svg id="eT5De3RrHQN1" xmlns="http://www.w3.org/2000/svg" xmlns:xlink="http://www.w3.org/1999/xlink" viewBox="0 0 300 300" shape-rendering="geometricPrecision" text-rendering="geometricPrecision"><g transform="matrix(2.744518 0 0 3.324854-216.309135-201.089161)"><rect width="98.2864" height="3.76255" rx="0" ry="0" transform="matrix(.41753-.41753 0.422852 0.422852 113.829875 109.194014)" fill="#235a86" stroke-width="0"/><rect width="98.2864" height="3.76255" rx="0" ry="0" transform="matrix(.41753-.41753 0.422852 0.422852 105.432987 101.656579)" fill="#235a86" stroke-width="0"/><rect width="22.0161" height="3.76255" rx="0" ry="0" transform="matrix(.41753 0.41753-.422852 0.422852 107.023989 100.065577)" fill="#235a86" stroke-width="0"/><rect width="22.0161" height="3.76255" rx="0" ry="0" transform="matrix(.41753 0.41753-.422852 0.422852 147.266036 60.61903)" fill="#235a86" stroke-width="0"/><rect width="98.2864" height="3.76255" rx="0" ry="0" transform="matrix(.41753-.41753 0.422852 0.422852 110.029036 105.687229)" fill="#235a86" stroke-width="0"/><rect width="77.9031" height="3.76255" rx="0" ry="0" transform="matrix(.41753-.41753 0.422852 0.422852 107.023989 141.026904)" fill="#235a86" stroke-width="0"/><rect width="98.395026" height="3.76255" rx="0" ry="0" transform="matrix(.41753-.41753 0.422852 0.422852 113.829874 149.119132)" fill="#235a86" stroke-width="0"/><rect width="22.0161" height="3.76255" rx="0" ry="0" transform="matrix(.41753 0.41753-.422852 0.422852 107.819491 139.926744)" fill="#235a86" stroke-width="0"/><rect width="86.3708" height="3.76255" rx="0" ry="0" transform="matrix(.41753-.41753 0.422852 0.422852 110.824683 144.562425)" fill="#235a86" stroke-width="0"/><rect width="40.6451" height="3.76255" rx="0" ry="0" transform="matrix(.590477 0 0 0.598003 123.231136 100.178)" fill="#235a86" stroke-width="0"/><rect width="68.5886" height="3.76255" rx="0" ry="0" transform="matrix(.590477 0 0 0.598003 114.666136 108.535)" fill="#235a86" stroke-width="0"/><rect width="20.3226" height="3.76255" rx="0" ry="0" transform="matrix(.41753 0.41753-.422852 0.422852 147.069136 100.178)" fill="#235a86" stroke-width="0"/></g></svg>
